<?xml version="1.0"?>

<svg xmlns="http://www.w3.org/2000/svg" viewBox="0 0 100 100" role="img" aria-label="Vivid Life Theme — noon">
  <title>Vivid Life Theme — noon</title>

  
  <rect x="0" y="0" width="100" height="100" fill="#f5f5f5"></rect>

  
  <g transform="translate(50 50)">
    <path d="M 0 -38 A 38 38 0 0 1 32.91 -19 L 0 0 Z" fill="#ef4444"></path>
    <path d="M 32.91 -19 A 38 38 0 0 1 32.91 19 L 0 0 Z" fill="#f97316"></path>
    <path d="M 32.91 19 A 38 38 0 0 1 0 38 L 0 0 Z" fill="#eab308"></path>
    <path d="M 0 38 A 38 38 0 0 1 -32.91 19 L 0 0 Z" fill="#84cc16"></path>
    <path d="M -32.91 19 A 38 38 0 0 1 -32.91 -19 L 0 0 Z" fill="#3b82f6"></path>
    <path d="M -32.91 -19 A 38 38 0 0 1 0 -38 L 0 0 Z" fill="#a855f7"></path>
    <circle cx="0" cy="0" r="38" fill="none" stroke="#171717" stroke-width="1.5" opacity="0.4"></circle>
  </g>

  
  <rect x="0" y="0" width="100" height="100" fill="none" stroke="#171717" stroke-width="1.5"></rect>
</svg>