<?xml version="1.0"?>

<svg xmlns="http://www.w3.org/2000/svg" viewBox="0 0 240 48" role="img" aria-label="Vivid Life Theme">
  <title>Vivid Life Theme</title>

  
  <g transform="translate(4 4) scale(0.40)">
    <rect x="0" y="0" width="100" height="25" fill="#f5f5f5"></rect>
    <rect x="0" y="25" width="100" height="25" fill="#d4d4d4"></rect>
    <rect x="0" y="50" width="100" height="25" fill="#404040"></rect>
    <rect x="0" y="75" width="100" height="25" fill="#171717"></rect>
    <g transform="translate(50 50)">
      <path d="M 0 -38 A 38 38 0 0 1 32.91 -19 L 0 0 Z" fill="#ef4444"></path>
      <path d="M 32.91 -19 A 38 38 0 0 1 32.91 19 L 0 0 Z" fill="#f97316"></path>
      <path d="M 32.91 19 A 38 38 0 0 1 0 38 L 0 0 Z" fill="#eab308"></path>
      <path d="M 0 38 A 38 38 0 0 1 -32.91 19 L 0 0 Z" fill="#84cc16"></path>
      <path d="M -32.91 19 A 38 38 0 0 1 -32.91 -19 L 0 0 Z" fill="#3b82f6"></path>
      <path d="M -32.91 -19 A 38 38 0 0 1 0 -38 L 0 0 Z" fill="#a855f7"></path>
    </g>
    <rect x="0" y="0" width="100" height="100" fill="none" stroke="#171717" stroke-width="3"></rect>
  </g>

  
  <text x="56" y="32" font-family="ui-sans-serif, system-ui, -apple-system, &#39;Segoe UI&#39;, Roboto, sans-serif" font-size="22" letter-spacing="-0.4" fill="#171717">
    <tspan font-weight="700">Vivid</tspan><tspan font-weight="500" fill="#737373"> Life Theme</tspan>
  </text>
</svg>